<?xml version="1.0" encoding="utf-8"?>
<!-- Generator: Adobe Illustrator 16.0.0, SVG Export Plug-In . SVG Version: 6.00 Build 0)  -->
<!DOCTYPE svg PUBLIC "-//W3C//DTD SVG 1.1//EN" "http://www.w3.org/Graphics/SVG/1.1/DTD/svg11.dtd">
<svg version="1.1" id="图层_1" xmlns="http://www.w3.org/2000/svg" xmlns:xlink="http://www.w3.org/1999/xlink" x="0px" y="0px"
	 width="154.054px" height="143.243px" viewBox="0 0 154.054 143.243" enable-background="new 0 0 154.054 143.243"
	 xml:space="preserve">
<g>
	<g>
		<g>
			<path fill="#9EA0A3" d="M65.622,93.806c-1.266-0.474-2.157-1.067-2.664-1.771c-0.968,2.036-1.628,4.192-1.992,6.481
				c-0.165,1.079-0.264,2.19-0.309,3.313c2.355,1.045,4.667,1.573,6.945,1.584c-0.176-2.916,0.242-5.832,1.266-8.793
				C67.603,94.411,66.513,94.136,65.622,93.806z"/>
			<path fill="#DDE1E9" d="M43.963,114.661c-0.11,0.308-0.231,0.649-0.33,1.001c-0.264,0.958-0.363,1.717-0.308,2.289
				c1.232,1.255,5.371,1.981,12.425,2.201c2.906,0.044,5.558-0.264,7.968-0.902c-0.242-1.551-0.682-2.872-1.31-3.973
				C56.201,116.146,50.06,115.948,43.963,114.661z"/>
			<path fill="#FFFFFF" d="M48.255,110.424c-1.915,0.375-3.346,1.794-4.292,4.237c6.097,1.287,12.238,1.485,18.445,0.616
				c-0.66-1.123-1.507-2.014-2.564-2.663C56.597,110.611,52.745,109.874,48.255,110.424z"/>
			<path fill="#656565" d="M62.958,92.034c0.506,0.704,1.398,1.298,2.664,1.771c0.892,0.33,1.981,0.605,3.247,0.814
				c-1.024,2.961-1.442,5.877-1.266,8.793c0.495,0,0.979-0.032,1.463-0.065c0.209-3.555,0.925-6.823,2.168-9.784l-7.759-2.542
				c-0.044,0.077-0.077,0.154-0.121,0.22C63.222,91.506,63.09,91.77,62.958,92.034z"/>
			<path fill="#DDE1E9" d="M70.112,104.14c-0.088-0.627-0.44-0.892-1.046-0.792c0.209,2.212,0.121,3.995-0.253,5.349
				c-4.039-0.011-7.77-0.958-11.192-2.851l0.605,1.827c2.74,1.552,6.218,2.233,10.422,2.036l1.816-1.101L70.112,104.14z"/>
			<path fill="#FFFFFF" d="M69.066,103.348c-0.484,0.033-0.968,0.065-1.463,0.065c-2.278-0.011-4.589-0.539-6.945-1.584
				c-0.484-0.341-1.001-0.066-1.529,0.836l-1.508,3.181c3.422,1.893,7.153,2.84,11.192,2.851
				C69.187,107.343,69.275,105.56,69.066,103.348z"/>
			<path fill="#286283" d="M67.657,111.547c0.54-0.551,0.858-1.167,0.991-1.838c-4.204,0.197-7.682-0.484-10.422-2.036
				c-3.313,0.473-6.637,1.397-9.971,2.751c4.49-0.55,8.342,0.188,11.589,2.19c1.057,0.649,1.904,1.54,2.564,2.663
				c1.596-0.506,2.608-1.034,3.027-1.606c0-0.012,0.011-0.022,0.022-0.022c0-0.605,0.165-1.111,0.495-1.541
				c0.33-0.439,0.727-0.66,1.188-0.66C67.327,111.447,67.503,111.48,67.657,111.547z"/>
			<path fill="#2B5063" d="M68.648,109.709c-0.132,0.671-0.451,1.287-0.991,1.838c0.253,0.109,0.484,0.286,0.693,0.561
				c0.331,0.44,0.496,0.958,0.496,1.585c0,0.616-0.165,1.155-0.496,1.585c-0.33,0.44-0.737,0.66-1.21,0.66
				c-0.462,0-0.858-0.22-1.188-0.66c-0.33-0.43-0.495-0.969-0.495-1.585l-0.022-0.021c-0.418,0.572-1.431,1.101-3.027,1.606
				c0.627,1.101,1.067,2.422,1.31,3.973c2.234-0.704,4.369-1.606,6.395-2.74C70.486,114.022,70.001,111.756,68.648,109.709z"/>
			<path fill="#DDE1E9" d="M67.657,111.547c-0.154-0.066-0.33-0.1-0.517-0.1c-0.462,0-0.858,0.221-1.188,0.66
				c-0.33,0.43-0.495,0.936-0.495,1.541c0,0.011,0,0.022,0,0.044c0,0.616,0.165,1.155,0.495,1.585c0.33,0.44,0.727,0.66,1.188,0.66
				c0.473,0,0.88-0.22,1.21-0.66c0.331-0.43,0.496-0.969,0.496-1.585c0-0.627-0.165-1.145-0.496-1.585
				C68.142,111.833,67.911,111.656,67.657,111.547z"/>
			
				<path fill="none" stroke="#000000" stroke-width="0.3283" stroke-linecap="round" stroke-linejoin="round" stroke-miterlimit="10" d="
				M60.658,101.829c0.044-1.123,0.144-2.234,0.309-3.313c0.363-2.289,1.023-4.445,1.992-6.481c0.132-0.265,0.264-0.528,0.396-0.793
				c0.044-0.065,0.077-0.143,0.121-0.22l7.759,2.542c-1.244,2.961-1.959,6.229-2.168,9.784"/>
			
				<path fill="none" stroke="#000000" stroke-width="0.3283" stroke-linecap="round" stroke-linejoin="round" stroke-miterlimit="10" d="
				M63.717,119.25c-2.41,0.639-5.062,0.946-7.968,0.902c-7.054-0.22-11.192-0.946-12.425-2.201
				c-0.055-0.572,0.044-1.331,0.308-2.289c0.099-0.352,0.22-0.693,0.33-1.001c0.946-2.443,2.377-3.862,4.292-4.237"/>
			
				<path fill="none" stroke="#000000" stroke-width="0.3283" stroke-linecap="round" stroke-linejoin="round" stroke-miterlimit="10" d="
				M69.066,103.348c0.605-0.1,0.958,0.165,1.046,0.792l0.352,4.469l-1.816,1.101"/>
			
				<path fill="none" stroke="#000000" stroke-width="0.3283" stroke-linecap="round" stroke-linejoin="round" stroke-miterlimit="10" d="
				M60.658,101.829c2.355,1.045,4.667,1.573,6.945,1.584c0.495,0,0.979-0.032,1.463-0.065"/>
			
				<path fill="none" stroke="#000000" stroke-width="0.3283" stroke-linecap="round" stroke-linejoin="round" stroke-miterlimit="10" d="
				M65.457,113.648c0,0.011,0,0.022,0,0.044c0,0.616,0.165,1.155,0.495,1.585c0.33,0.44,0.727,0.66,1.188,0.66
				c0.473,0,0.88-0.22,1.21-0.66c0.331-0.43,0.496-0.969,0.496-1.585c0-0.627-0.165-1.145-0.496-1.585
				c-0.209-0.274-0.44-0.451-0.693-0.561c-0.154-0.066-0.33-0.1-0.517-0.1c-0.462,0-0.858,0.221-1.188,0.66
				C65.622,112.537,65.457,113.043,65.457,113.648"/>
			
				<path fill="none" stroke="#000000" stroke-width="0.3283" stroke-linecap="round" stroke-linejoin="round" stroke-miterlimit="10" d="
				M58.226,107.673l-0.605-1.827l1.508-3.181c0.528-0.902,1.045-1.177,1.529-0.836"/>
			
				<path fill="none" stroke="#000000" stroke-width="0.3283" stroke-linecap="round" stroke-linejoin="round" stroke-miterlimit="10" d="
				M48.255,110.424c4.49-0.55,8.342,0.188,11.589,2.19c1.057,0.649,1.904,1.54,2.564,2.663c0.627,1.101,1.067,2.422,1.31,3.973"/>
			
				<path fill="none" stroke="#000000" stroke-width="0.3283" stroke-linecap="round" stroke-linejoin="round" stroke-miterlimit="10" d="
				M65.457,113.648c-0.011,0-0.022,0.011-0.022,0.022"/>
			
				<path fill="none" stroke="#000000" stroke-width="0.3283" stroke-linecap="round" stroke-linejoin="round" stroke-miterlimit="10" d="
				M68.648,109.709c1.354,2.047,1.838,4.313,1.464,6.801c-2.025,1.134-4.16,2.036-6.395,2.74"/>
			
				<path fill="none" stroke="#000000" stroke-width="0.3283" stroke-linecap="round" stroke-linejoin="round" stroke-miterlimit="10" d="
				M68.648,109.709c-4.204,0.197-7.682-0.484-10.422-2.036"/>
			
				<path fill="none" stroke="#000000" stroke-width="0.3283" stroke-linecap="round" stroke-linejoin="round" stroke-miterlimit="10" d="
				M48.255,110.424c3.334-1.354,6.658-2.278,9.971-2.751"/>
		</g>
		<g>
			<path fill="#29688D" stroke="#070001" stroke-width="0.3283" stroke-miterlimit="10" d="M73.303,95.061
				c0.462-0.121,0.936-0.265,1.409-0.43c0.87-1.155,1.232-2.63,1.101-4.402l-16.035-3.697c-0.925,1.827-1.145,3.555-0.661,5.173
				c1.717,1.441,3.5,2.476,5.349,3.125c0.583,0.209,1.189,0.374,1.794,0.495c0.099,0.022,0.187,0.044,0.286,0.066
				C68.714,95.798,70.959,95.688,73.303,95.061z"/>
			<path fill="#29688D" stroke="#070001" stroke-width="0.3283" stroke-miterlimit="10" d="M73.303,95.061
				c-2.344,0.627-4.589,0.737-6.757,0.33c-0.099-0.022-0.187-0.044-0.286-0.066c-0.605-0.121-1.21-0.286-1.794-0.495
				c-1.849-0.649-3.632-1.684-5.349-3.125c-0.484-1.618-0.264-3.346,0.661-5.173l16.035,3.697c0.132,1.772-0.231,3.247-1.101,4.402
				C74.239,94.796,73.766,94.939,73.303,95.061"/>
		</g>
		<g>
			<path fill="#DDE1E9" d="M108.906,104.569l0.781-1.761c-2.652,1.584-5.613,2.41-8.87,2.477c-1.013-1.079-1.585-2.531-1.695-4.392
				c-0.242,0.032-0.496,0.044-0.738,0.055c-0.33,0.121-0.55,0.341-0.66,0.66l-0.166,3.511l1.299,1.211
				c0.528,0.055,1.034,0.1,1.53,0.109C103.623,106.594,106.452,105.967,108.906,104.569z"/>
			<path fill="#DDE1E9" d="M111.899,113.076c-0.011,0.11-0.033,0.451-0.066,1.013c-0.143,1.101-0.055,1.838,0.242,2.245
				c4.71,0.551,8.672,0.352,11.908-0.584c0.935-0.77,1.397-1.782,1.409-3.048C120.968,113.517,116.466,113.648,111.899,113.076z"/>
			<path fill="#2B5063" d="M111.833,114.089c0.033-0.562,0.055-0.902,0.066-1.013c-1.992-0.308-3.862-0.727-5.612-1.276
				c-0.066,0.088-0.132,0.154-0.209,0.242c-0.407,0.396-0.903,0.604-1.475,0.604c-0.583,0-1.067-0.209-1.475-0.604
				c-0.319-0.319-0.506-0.693-0.583-1.123c-1.233-0.374-1.948-1.871-2.157-4.479c-0.496-0.01-1.001-0.055-1.53-0.109
				c-1.684,2.477-1.893,5.007-0.616,7.55c0.671,1.111,1.519,1.65,2.531,1.629l11.303,0.825
				C111.778,115.927,111.69,115.189,111.833,114.089z"/>
			<path fill="#286283" d="M116.18,106.132c-2.696-0.242-5.128-0.76-7.274-1.563c-2.454,1.397-5.283,2.024-8.518,1.87
				c0.209,2.608,0.924,4.105,2.157,4.479c-0.011-0.11-0.022-0.23-0.022-0.352c0-0.584,0.198-1.079,0.605-1.486
				c0.407-0.396,0.891-0.605,1.475-0.605c0.572,0,1.068,0.21,1.475,0.605c0.407,0.407,0.616,0.902,0.616,1.486
				c0,0.462-0.143,0.88-0.407,1.232c1.75,0.55,3.621,0.969,5.612,1.276C112.46,109.565,113.88,107.243,116.18,106.132z"/>
			<path fill="#FFFFFF" d="M116.18,106.132c-2.3,1.111-3.72,3.434-4.281,6.944c4.567,0.572,9.069,0.44,13.493-0.374
				c0.011-0.969-0.253-2.069-0.782-3.323C123.333,107.222,120.527,106.143,116.18,106.132z"/>
			<path fill="#FFFFFF" d="M109.687,102.809l-2.135-3.225c-0.418-0.54-0.958-0.661-1.618-0.342c-1.97,0.814-4.017,1.343-6.174,1.585
				c-0.209,0.033-0.418,0.055-0.638,0.066c0.11,1.86,0.682,3.313,1.695,4.392C104.074,105.219,107.035,104.393,109.687,102.809z"/>
			<path fill="#656565" d="M96.415,89.689l-1.507,0.628c2.091,3.015,3.246,6.57,3.477,10.631c0.242-0.011,0.496-0.022,0.738-0.055
				c0.22-0.012,0.429-0.033,0.638-0.066C99.672,96.524,98.561,92.815,96.415,89.689z"/>
			<path fill="#9EA0A3" d="M102.457,87.181l-6.042,2.509c2.146,3.126,3.258,6.835,3.346,11.138c2.157-0.242,4.204-0.771,6.174-1.585
				C105.989,95.291,104.833,91.274,102.457,87.181z"/>
			<path fill="#DDE1E9" d="M106.078,109.081c-0.407-0.396-0.903-0.605-1.475-0.605c-0.583,0-1.067,0.21-1.475,0.605
				c-0.407,0.407-0.605,0.902-0.605,1.486c0,0.121,0.011,0.241,0.022,0.352c0.077,0.43,0.264,0.804,0.583,1.123
				c0.407,0.396,0.891,0.604,1.475,0.604c0.572,0,1.068-0.209,1.475-0.604c0.077-0.088,0.143-0.154,0.209-0.242
				c0.264-0.353,0.407-0.771,0.407-1.232C106.693,109.983,106.485,109.488,106.078,109.081z"/>
			
				<path fill="none" stroke="#000000" stroke-width="0.3283" stroke-linecap="round" stroke-linejoin="round" stroke-miterlimit="10" d="
				M108.906,104.569l0.781-1.761l-2.135-3.225c-0.418-0.54-0.958-0.661-1.618-0.342"/>
			
				<path fill="none" stroke="#000000" stroke-width="0.3283" stroke-linecap="round" stroke-linejoin="round" stroke-miterlimit="10" d="
				M112.075,116.334c-0.297-0.407-0.385-1.145-0.242-2.245c0.033-0.562,0.055-0.902,0.066-1.013
				c0.562-3.511,1.981-5.833,4.281-6.944"/>
			
				<path fill="none" stroke="#000000" stroke-width="0.3283" stroke-linecap="round" stroke-linejoin="round" stroke-miterlimit="10" d="
				M116.18,106.132c-2.696-0.242-5.128-0.76-7.274-1.563"/>
			
				<path fill="none" stroke="#000000" stroke-width="0.3283" stroke-linecap="round" stroke-linejoin="round" stroke-miterlimit="10" d="
				M112.075,116.334c4.71,0.551,8.672,0.352,11.908-0.584c0.935-0.77,1.397-1.782,1.409-3.048c0.011-0.969-0.253-2.069-0.782-3.323
				c-1.277-2.157-4.083-3.236-8.43-3.247"/>
			
				<path fill="none" stroke="#000000" stroke-width="0.3283" stroke-linecap="round" stroke-linejoin="round" stroke-miterlimit="10" d="
				M105.935,99.242c0.055-3.951-1.101-7.968-3.478-12.062l-6.042,2.509l-1.507,0.628c2.091,3.015,3.246,6.57,3.477,10.631"/>
			
				<path fill="none" stroke="#000000" stroke-width="0.3283" stroke-linecap="round" stroke-linejoin="round" stroke-miterlimit="10" d="
				M105.935,99.242c-1.97,0.814-4.017,1.343-6.174,1.585c-0.209,0.033-0.418,0.055-0.638,0.066
				c-0.242,0.032-0.496,0.044-0.738,0.055"/>
			
				<path fill="none" stroke="#000000" stroke-width="0.3283" stroke-linecap="round" stroke-linejoin="round" stroke-miterlimit="10" d="
				M98.858,106.33l-1.299-1.211l0.166-3.511c0.11-0.319,0.33-0.539,0.66-0.66"/>
			
				<path fill="none" stroke="#000000" stroke-width="0.3283" stroke-linecap="round" stroke-linejoin="round" stroke-miterlimit="10" d="
				M108.906,104.569c-2.454,1.397-5.283,2.024-8.518,1.87c-0.496-0.01-1.001-0.055-1.53-0.109"/>
			
				<path fill="none" stroke="#000000" stroke-width="0.3283" stroke-linecap="round" stroke-linejoin="round" stroke-miterlimit="10" d="
				M104.603,108.476c-0.583,0-1.067,0.21-1.475,0.605c-0.407,0.407-0.605,0.902-0.605,1.486c0,0.121,0.011,0.241,0.022,0.352
				c0.077,0.43,0.264,0.804,0.583,1.123c0.407,0.396,0.891,0.604,1.475,0.604c0.572,0,1.068-0.209,1.475-0.604
				c0.077-0.088,0.143-0.154,0.209-0.242c0.264-0.353,0.407-0.771,0.407-1.232c0-0.584-0.208-1.079-0.616-1.486
				C105.67,108.686,105.175,108.476,104.603,108.476"/>
			
				<path fill="none" stroke="#000000" stroke-width="0.3283" stroke-linecap="round" stroke-linejoin="round" stroke-miterlimit="10" d="
				M112.075,116.334l-11.303-0.825c-1.012,0.021-1.86-0.518-2.531-1.629c-1.277-2.543-1.068-5.073,0.616-7.55"/>
		</g>
		<g>
			<path fill="#5489B3" d="M104.9,83.108l-0.771,0.341c0.429,2.234,0.044,4.084-1.177,5.547c0.253-0.197,0.517-0.396,0.792-0.605
				c1.277-1.012,1.662-2.751,1.156-5.238C104.9,83.142,104.9,83.131,104.9,83.108z"/>
			<path fill="#29688D" d="M102.952,88.996c1.221-1.463,1.606-3.313,1.177-5.547l-13.834,5.998c0.737,1.673,1.86,2.74,3.368,3.203
				C95.997,93.091,99.1,91.88,102.952,88.996z"/>
			
				<path fill="none" stroke="#000000" stroke-width="0.3283" stroke-linecap="round" stroke-linejoin="round" stroke-miterlimit="10" d="
				M104.9,83.108c0,0.022,0,0.033,0,0.044c0.506,2.487,0.121,4.227-1.156,5.238c-0.275,0.21-0.539,0.408-0.792,0.605
				c-3.852,2.884-6.956,4.095-9.289,3.654c-1.508-0.463-2.631-1.53-3.368-3.203l13.834-5.998L104.9,83.108"/>
		</g>
	</g>
	<g>
		<g>
			<path fill="#9EA0A3" d="M109.086,53.925l1.134,2.112l6.417-2.574l-1.629-3.038L109.086,53.925z"/>
			<path fill="#656565" d="M110.22,56.037l1.112,2.113l6.053-3.301l-0.749-1.387L110.22,56.037z"/>
			
				<polyline fill="none" stroke="#000000" stroke-width="0.3283" stroke-linecap="round" stroke-linejoin="round" stroke-miterlimit="10" points="
				110.22,56.037 111.332,58.15 117.385,54.85 116.637,53.463 115.008,50.425 109.086,53.925 110.22,56.037 			"/>
		</g>
		<g>
			<path fill="#3C94C4" d="M105.29,49.974l-1.926,0.418l-1.002,16.641c3.423,0.011,6.373-1.288,8.871-3.94
				c0.11-0.132,0.231-0.264,0.352-0.385c0.143-1.09,0.198-2.19,0.132-3.269c-0.121-2.08-0.639-4.127-1.53-6.142
				C109.142,51.063,107.502,49.952,105.29,49.974z"/>
			<path fill="#29688D" d="M102.362,67.032l-0.198,3.313c2.355,0.936,4.666,0.792,6.955-0.418c0.738-1.376,1.321-2.729,1.761-4.083
				c0.319-1.057,0.561-2.103,0.704-3.137c-0.121,0.121-0.242,0.253-0.352,0.385C108.735,65.744,105.785,67.043,102.362,67.032z"/>
			
				<path fill="none" stroke="#000000" stroke-width="0.3283" stroke-linecap="round" stroke-linejoin="round" stroke-miterlimit="10" d="
				M103.364,50.392l-1.002,16.641l-0.198,3.313c2.355,0.936,4.666,0.792,6.955-0.418c0.738-1.376,1.321-2.729,1.761-4.083
				c0.319-1.057,0.561-2.103,0.704-3.137c0.143-1.09,0.198-2.19,0.132-3.269c-0.121-2.08-0.639-4.127-1.53-6.142
				c-1.045-2.233-2.685-3.345-4.897-3.323L103.364,50.392"/>
		</g>
		<g>
			<path fill="#9EA0A3" d="M139.96,46.147c0.603-0.386,0.652-0.89,0.148-1.531c-1.541-0.979-3.053-1.146-4.554-0.494
				c-0.445,1.077-0.375,1.946,0.197,2.618L139.96,46.147z"/>
			<path fill="#9EA0A3" d="M139.031,39.617c1.344-0.919,1.423-1.581,0.208-2.006c-1.314-0.593-3.151-0.118-5.532,1.383
				c-0.108,1.324,0.267,2.352,1.126,3.112C136.917,40.931,138.32,40.111,139.031,39.617z"/>
			<path fill="#9EA0A3" d="M135.406,35.072c0.178-0.493-0.188-0.81-1.086-0.938c-1.858,0.059-3.428,1.185-4.703,3.358
				c0.899,0.691,1.917,1.008,3.013,0.938L135.406,35.072z"/>
			
				<path fill="none" stroke="#000000" stroke-width="0.2947" stroke-linecap="round" stroke-linejoin="round" stroke-miterlimit="10" d="
				M139.239,37.611c-1.314-0.593-3.151-0.118-5.532,1.383c-0.108,1.324,0.267,2.352,1.126,3.112
				c2.084-1.176,3.487-1.995,4.198-2.489C140.375,38.698,140.454,38.036,139.239,37.611"/>
			
				<path fill="none" stroke="#000000" stroke-width="0.2947" stroke-linecap="round" stroke-linejoin="round" stroke-miterlimit="10" d="
				M134.319,34.135c-1.858,0.059-3.428,1.185-4.703,3.358c0.899,0.691,1.917,1.008,3.013,0.938l2.776-3.359
				C135.583,34.579,135.218,34.263,134.319,34.135"/>
			
				<path fill="none" stroke="#000000" stroke-width="0.2947" stroke-linecap="round" stroke-linejoin="round" stroke-miterlimit="10" d="
				M139.96,46.147l-4.208,0.593c-0.573-0.672-0.642-1.541-0.197-2.618c1.501-0.652,3.013-0.484,4.554,0.494
				C140.612,45.258,140.563,45.762,139.96,46.147"/>
		</g>
		<g>
			<path fill="#FFFFFF" d="M136.957,44.813c-0.03-0.731-0.129-1.492-0.316-2.282c-1.116-3.132-3.033-5.067-5.74-5.799
				c-2.262-0.465-4.465-0.178-6.629,0.84c0.425,6.876,2.025,11.479,4.782,13.83c0,0,0,0,0,0.01
				C133.459,49.654,136.097,47.461,136.957,44.813z"/>
			<path fill="#C2C7CE" d="M129.054,51.412c0-0.01,0-0.01,0-0.01c-4.683,1.799-9.741,3.083-15.155,3.854
				c0.089,0.968,0.247,1.956,0.474,2.953c0.811,1.295,1.996,1.689,3.566,1.186c4.633-1.402,9.148-3.596,13.535-6.599
				C130.585,52.489,129.774,52.025,129.054,51.412z"/>
			<path fill="#C2C7CE" d="M131.474,52.796c1.304-0.899,2.598-1.867,3.882-2.904c1.126-1.423,1.66-3.112,1.601-5.078
				c-0.86,2.647-3.498,4.841-7.903,6.599C129.774,52.025,130.585,52.489,131.474,52.796z"/>
			<path fill="#FFFFFF" d="M129.054,51.402c-2.756-2.351-4.357-6.954-4.782-13.83c-3.941,2.016-6.807,4.436-8.604,7.281
				c-1.531,3.318-2.114,6.786-1.769,10.402C119.313,54.485,124.371,53.201,129.054,51.402z"/>
			
				<path fill="none" stroke="#000000" stroke-width="0.2947" stroke-linecap="round" stroke-linejoin="round" stroke-miterlimit="10" d="
				M131.474,52.796c-0.889-0.307-1.7-0.771-2.42-1.384c0-0.01,0-0.01,0-0.01c-2.756-2.351-4.357-6.954-4.782-13.83"/>
			
				<path fill="none" stroke="#000000" stroke-width="0.2947" stroke-linecap="round" stroke-linejoin="round" stroke-miterlimit="10" d="
				M124.272,37.572c-3.941,2.016-6.807,4.436-8.604,7.281c-1.531,3.318-2.114,6.786-1.769,10.402
				c0.089,0.968,0.247,1.956,0.474,2.953c0.811,1.295,1.996,1.689,3.566,1.186c4.633-1.402,9.148-3.596,13.535-6.599"/>
			
				<path fill="none" stroke="#000000" stroke-width="0.2947" stroke-linecap="round" stroke-linejoin="round" stroke-miterlimit="10" d="
				M124.272,37.572c2.164-1.018,4.367-1.305,6.629-0.84c2.707,0.731,4.624,2.667,5.74,5.799c0.188,0.79,0.287,1.551,0.316,2.282
				c0.059,1.966-0.475,3.655-1.601,5.078c-1.285,1.037-2.579,2.005-3.882,2.904"/>
		</g>
		<g>
			<path fill="#9EA0A3" d="M125.813,35.646c-0.188-0.651-0.445-1.047-0.761-1.186c-0.771-0.336-1.225-0.228-1.373,0.346
				l-1.136,4.258c-0.138,0.949,0.375,1.521,1.532,1.739c0.662,0.068,1.155-0.257,1.442-0.998
				C126.041,38.194,126.139,36.812,125.813,35.646z"/>
			
				<path fill="none" stroke="#000000" stroke-width="0.2947" stroke-linecap="round" stroke-linejoin="round" stroke-miterlimit="10" d="
				M125.813,35.646c0.326,1.166,0.227,2.549-0.297,4.159c-0.287,0.741-0.78,1.066-1.442,0.998c-1.156-0.218-1.67-0.79-1.532-1.739
				l1.136-4.258c0.148-0.573,0.603-0.682,1.373-0.346C125.369,34.599,125.625,34.994,125.813,35.646"/>
		</g>
	</g>
	<g>
		<path fill="#FFFFFF" d="M103.045,82.483c-1.453,1.09-2.432,2.652-2.95,4.7c4.105-1.992,6.35-3.621,6.725-4.92
			c0.121-1.156,0.22-2.301,0.319-3.412L103.045,82.483z"/>
		<path fill="#FFFFFF" d="M106.82,50.469c0.044-0.836-0.44-1.211-1.453-1.122v1.155c-0.583,0.649-2.443,1.629-5.58,2.916
			l0.011,0.033l1.486,0.265h0.043C103.485,53.012,105.323,51.933,106.82,50.469z"/>
		<path fill="#DDE1E9" d="M101.284,53.716l-1.486-0.265l-1.387,6.988l1.431,0.551L101.284,53.716z"/>
		<path fill="#FFFFFF" d="M101.328,53.716h-0.043l-1.442,7.274c-2.399,1.155-5.007,2.058-7.836,2.686
			c0.947,7.241,1.211,14.604,0.792,22.109c-0.451,2.895-1.321,4.502-2.598,4.843c2.377-0.539,4.678-1.232,6.89-2.08
			c1.101-0.474,2.091-0.936,3.004-1.364c0.518-2.048,1.497-3.61,2.95-4.7l4.094-3.632c0.947-11.468,0.848-20.921-0.319-28.383
			C105.323,51.933,103.485,53.012,101.328,53.716z"/>
		<path fill="#FFFFFF" d="M76.588,63.555l0.176,1.188c5.624,0.308,10.698-0.044,15.243-1.067c2.829-0.628,5.437-1.53,7.836-2.686
			l-1.431-0.551C93.58,62.047,86.306,63.081,76.588,63.555z"/>
		<path fill="#857CB1" d="M78.172,20.611l-1.573,0.121c3.742,1.166,6.669,4.237,8.76,9.189l2.477-0.275
			c-1.089-4.347-3.786-7.396-8.1-9.156L78.172,20.611z"/>
		<path fill="#DDE1E9" d="M80.286,19.83c-0.572-0.033-1.112,0.088-1.596,0.385c-0.187,0.11-0.352,0.242-0.518,0.396l1.563-0.121
			c4.314,1.761,7.011,4.81,8.1,9.156l0.66-0.109c-1.078-4.392-3.522-7.484-7.34-9.322C80.869,20.083,80.572,19.962,80.286,19.83z"/>
		<path fill="#FFFFFF" d="M75.289,20.402c-0.715,0.132-1.431,0.275-2.124,0.439c-6.174,1.432-10.928,4.039-14.263,7.814
			c-2.96,7.539-3.929,15.088-2.894,22.638c2.443,0.639,5.041,1.09,7.781,1.332c9.189,0.825,17.851,0.55,25.984-0.814
			c4.017-0.683,7.396-1.441,10.136-2.278c1.398-0.429,2.62-0.88,3.676-1.343c0.661-0.286,1.255-0.583,1.783-0.88
			c0.363-0.221,0.704-0.43,1.012-0.649c0.264-1.441,0.165-3.302-0.308-5.569c-0.583-2.651-1.419-5.063-2.487-7.23
			c-2.047-4.182-4.985-7.439-8.804-9.783c-4.094-1.971-7.704-3.269-10.808-3.863c-1.32-0.253-2.553-0.374-3.687-0.385
			c0.286,0.132,0.583,0.253,0.87,0.385c3.818,1.838,6.262,4.931,7.34,9.322l-0.66,0.109l-2.477,0.275
			c-2.091-4.952-5.018-8.023-8.76-9.189C76.169,20.589,75.729,20.479,75.289,20.402z"/>
		<path fill="#DDE1E9" d="M71.679,56.445v0.825l5.084,7.473l-0.176-1.188L71.679,56.445z"/>
		<path fill="#C2C6CB" d="M54.973,81.614c0.286,1.101,0.583,2.19,0.892,3.291c0.363,0.55,0.771,1.067,1.199,1.552
			c2.069,2.289,5.008,3.852,8.805,4.666c-1.343-0.858-2.63-2.421-3.874-4.666c-0.374-0.672-0.737-1.387-1.101-2.168
			C58.858,83.551,56.877,82.66,54.973,81.614z"/>
		<path fill="#FFFFFF" d="M60.894,84.289c0.363,0.781,0.727,1.496,1.101,2.168c1.244,2.245,2.531,3.808,3.874,4.666
			c1.045,0.231,2.157,0.396,3.334,0.506c3.159,0.33,6.207,0.463,9.167,0.396c-0.825-2.686-2.586-4.436-5.305-5.25
			c-3.368-0.22-6.614-0.781-9.707-1.684C62.523,84.839,61.698,84.575,60.894,84.289z"/>
		<path fill="#4A4949" d="M105.367,50.502v-1.155v-2.036c-0.528,0.297-1.123,0.594-1.783,0.88c-1.056,0.463-2.278,0.914-3.676,1.343
			c-2.74,0.837-6.119,1.596-10.136,2.278c-8.133,1.364-16.794,1.64-25.984,0.814c-2.74-0.242-5.338-0.693-7.781-1.332
			c-0.715-0.187-1.42-0.385-2.102-0.604l0.231,2.454l0.077,0.858c0.088,0.583,1.673,1.078,4.732,1.508
			c1.232,0.165,2.696,0.308,4.413,0.451c2.322,0.187,5.106,0.352,8.32,0.484l4.909,7.109c9.718-0.474,16.992-1.508,21.824-3.115
			l1.387-6.988l-0.066-0.011c0.022,0,0.043-0.011,0.055-0.022C102.924,52.131,104.784,51.151,105.367,50.502z M77.534,58.073
			c0.231-0.22,0.506-0.33,0.826-0.33c0.308,0,0.583,0.11,0.803,0.33c0.231,0.231,0.352,0.507,0.352,0.826s-0.121,0.583-0.352,0.813
			c-0.22,0.221-0.495,0.342-0.803,0.342c-0.319,0-0.594-0.121-0.826-0.342c-0.22-0.23-0.33-0.494-0.33-0.813
			S77.314,58.305,77.534,58.073z M84.248,57.578c0.22,0.231,0.341,0.507,0.341,0.826c0,0.318-0.121,0.583-0.341,0.814
			c-0.231,0.22-0.495,0.341-0.814,0.341s-0.594-0.121-0.825-0.341c-0.22-0.231-0.331-0.496-0.331-0.814
			c0-0.319,0.11-0.595,0.331-0.826c0.231-0.22,0.506-0.33,0.825-0.33S84.017,57.358,84.248,57.578z M92.414,57.776
			c-0.22-0.22-0.33-0.495-0.33-0.814s0.11-0.594,0.33-0.814c0.22-0.231,0.495-0.341,0.826-0.341c0.319,0,0.583,0.109,0.814,0.341
			c0.22,0.221,0.341,0.495,0.341,0.814s-0.121,0.595-0.341,0.814c-0.231,0.231-0.495,0.341-0.814,0.341
			C92.909,58.117,92.634,58.008,92.414,57.776z M96.98,54.938c0.32,0,0.595,0.109,0.815,0.33c0.231,0.23,0.341,0.506,0.341,0.825
			s-0.11,0.583-0.341,0.814c-0.22,0.22-0.495,0.341-0.815,0.341c-0.319,0-0.594-0.121-0.825-0.341
			c-0.22-0.231-0.331-0.495-0.331-0.814s0.11-0.595,0.331-0.825C96.387,55.047,96.662,54.938,96.98,54.938z"/>
		<path fill="#A7BA56" d="M78.36,57.743c-0.319,0-0.594,0.11-0.826,0.33c-0.22,0.231-0.33,0.507-0.33,0.826s0.11,0.583,0.33,0.813
			c0.231,0.221,0.506,0.342,0.826,0.342c0.308,0,0.583-0.121,0.803-0.342c0.231-0.23,0.352-0.494,0.352-0.813
			s-0.121-0.595-0.352-0.826C78.943,57.854,78.668,57.743,78.36,57.743z"/>
		<path fill="#E3901E" d="M84.589,58.404c0-0.319-0.121-0.595-0.341-0.826c-0.231-0.22-0.495-0.33-0.814-0.33
			s-0.594,0.11-0.825,0.33c-0.22,0.231-0.331,0.507-0.331,0.826c0,0.318,0.11,0.583,0.331,0.814c0.231,0.22,0.506,0.341,0.825,0.341
			s0.583-0.121,0.814-0.341C84.468,58.987,84.589,58.723,84.589,58.404z"/>
		<path fill="#DA3A27" d="M92.083,56.962c0,0.319,0.11,0.595,0.33,0.814c0.22,0.231,0.495,0.341,0.826,0.341
			c0.319,0,0.583-0.109,0.814-0.341c0.22-0.22,0.341-0.495,0.341-0.814s-0.121-0.594-0.341-0.814
			c-0.231-0.231-0.495-0.341-0.814-0.341c-0.331,0-0.605,0.109-0.826,0.341C92.193,56.368,92.083,56.643,92.083,56.962z"/>
		<path fill="#ECDC61" d="M97.795,55.268c-0.22-0.221-0.495-0.33-0.815-0.33c-0.319,0-0.594,0.109-0.825,0.33
			c-0.22,0.23-0.331,0.506-0.331,0.825s0.11,0.583,0.331,0.814c0.231,0.22,0.506,0.341,0.825,0.341c0.32,0,0.595-0.121,0.815-0.341
			c0.231-0.231,0.341-0.495,0.341-0.814S98.026,55.498,97.795,55.268z"/>
		<path fill="#DDE1E9" d="M71.679,57.271v-0.825c-3.213-0.133-5.998-0.298-8.32-0.484c-1.717-0.144-3.181-0.286-4.413-0.451
			c-3.06-0.43-4.645-0.925-4.732-1.508l-0.077-0.858c-0.66,0.132-1.21,0.462-1.64,0.968v0.022c-0.011,0.33,0.682,0.781,2.102,1.376
			c0.892,0.495,2.344,0.88,4.347,1.166c1.254,0.176,2.718,0.319,4.413,0.418C65.714,57.227,68.488,57.292,71.679,57.271z"/>
		<path fill="#FFFFFF" d="M92.006,63.676c-4.545,1.023-9.619,1.375-15.243,1.067l-5.084-7.473c-3.191,0.021-5.965-0.044-8.32-0.177
			c-1.695-0.099-3.159-0.242-4.413-0.418c-2.003-0.286-3.456-0.671-4.347-1.166c0.561,8.331,2.014,16.123,4.347,23.386
			c0.594,1.827,1.244,3.632,1.948,5.394c0.804,0.286,1.629,0.55,2.465,0.803c3.092,0.902,6.339,1.464,9.707,1.684
			c2.718,0.814,4.479,2.564,5.305,5.25c4.083-0.088,7.99-0.539,11.688-1.364c0.033-0.012,0.044-0.012,0.077-0.022l0.065-0.011
			c1.277-0.341,2.146-1.948,2.598-4.843C93.217,78.279,92.953,70.917,92.006,63.676z"/>
		<path fill="#C2C6CB" d="M53.906,50.689c0.682,0.22,1.387,0.418,2.102,0.604c-1.035-7.55-0.066-15.099,2.894-22.638
			c-4.523,5.117-6.438,12.381-5.733,21.791C53.41,50.523,53.653,50.612,53.906,50.689z"/>
		<path fill="#C2C6CB" d="M58.946,78.896c-2.333-7.263-3.786-15.055-4.347-23.386c-1.42-0.595-2.113-1.046-2.102-1.376
			c-0.661,8.749,0.077,17.575,2.234,26.479c0.077,0.33,0.165,0.671,0.242,1.001c1.904,1.046,3.885,1.937,5.921,2.675
			C60.19,82.527,59.541,80.723,58.946,78.896z"/>
		
			<path fill="none" stroke="#000000" stroke-width="0.3283" stroke-linecap="round" stroke-linejoin="round" stroke-miterlimit="10" d="
			M80.286,19.83c-0.572-0.033-1.112,0.088-1.596,0.385c-0.187,0.11-0.352,0.242-0.518,0.396"/>
		
			<line fill="none" stroke="#000000" stroke-width="0.3283" stroke-linecap="round" stroke-linejoin="round" stroke-miterlimit="10" x1="78.172" y1="20.611" x2="76.599" y2="20.732"/>
		
			<path fill="none" stroke="#000000" stroke-width="0.3283" stroke-linecap="round" stroke-linejoin="round" stroke-miterlimit="10" d="
			M76.599,20.732c-0.43-0.144-0.87-0.253-1.31-0.33c-0.715,0.132-1.431,0.275-2.124,0.439c-6.174,1.432-10.928,4.039-14.263,7.814
			c-4.523,5.117-6.438,12.381-5.733,21.791c0.242,0.076,0.484,0.165,0.737,0.242"/>
		
			<path fill="none" stroke="#000000" stroke-width="0.3283" stroke-linecap="round" stroke-linejoin="round" stroke-miterlimit="10" d="
			M87.835,29.646c-1.089-4.347-3.786-7.396-8.1-9.156l-1.563,0.121"/>
		
			<path fill="none" stroke="#000000" stroke-width="0.3283" stroke-linecap="round" stroke-linejoin="round" stroke-miterlimit="10" d="
			M80.286,19.83c0.286,0.132,0.583,0.253,0.87,0.385c3.818,1.838,6.262,4.931,7.34,9.322l-0.66,0.109"/>
		
			<path fill="none" stroke="#000000" stroke-width="0.3283" stroke-linecap="round" stroke-linejoin="round" stroke-miterlimit="10" d="
			M87.835,29.646l-2.477,0.275c-2.091-4.952-5.018-8.023-8.76-9.189"/>
		
			<path fill="none" stroke="#000000" stroke-width="0.3283" stroke-linecap="round" stroke-linejoin="round" stroke-miterlimit="10" d="
			M105.367,47.311c0.363-0.221,0.704-0.43,1.012-0.649c0.264-1.441,0.165-3.302-0.308-5.569c-0.583-2.651-1.419-5.063-2.487-7.23
			c-2.047-4.182-4.985-7.439-8.804-9.783c-4.094-1.971-7.704-3.269-10.808-3.863c-1.32-0.253-2.553-0.374-3.687-0.385"/>
		
			<path fill="none" stroke="#000000" stroke-width="0.3283" stroke-linecap="round" stroke-linejoin="round" stroke-miterlimit="10" d="
			M92.414,57.776c0.22,0.231,0.495,0.341,0.826,0.341c0.319,0,0.583-0.109,0.814-0.341c0.22-0.22,0.341-0.495,0.341-0.814
			s-0.121-0.594-0.341-0.814c-0.231-0.231-0.495-0.341-0.814-0.341c-0.331,0-0.605,0.109-0.826,0.341
			c-0.22,0.221-0.33,0.495-0.33,0.814S92.193,57.557,92.414,57.776"/>
		
			<path fill="none" stroke="#000000" stroke-width="0.3283" stroke-linecap="round" stroke-linejoin="round" stroke-miterlimit="10" d="
			M96.98,54.938c-0.319,0-0.594,0.109-0.825,0.33c-0.22,0.23-0.331,0.506-0.331,0.825s0.11,0.583,0.331,0.814
			c0.231,0.22,0.506,0.341,0.825,0.341c0.32,0,0.595-0.121,0.815-0.341c0.231-0.231,0.341-0.495,0.341-0.814
			s-0.11-0.595-0.341-0.825C97.575,55.047,97.3,54.938,96.98,54.938"/>
		
			<path fill="none" stroke="#000000" stroke-width="0.3283" stroke-linecap="round" stroke-linejoin="round" stroke-miterlimit="10" d="
			M106.82,50.469c0.044-0.836-0.44-1.211-1.453-1.122"/>
		
			<path fill="none" stroke="#000000" stroke-width="0.3283" stroke-linecap="round" stroke-linejoin="round" stroke-miterlimit="10" d="
			M99.798,53.451l-0.066-0.011c0.022,0,0.043-0.011,0.055-0.022c3.137-1.287,4.997-2.267,5.58-2.916v-1.155"/>
		
			<line fill="none" stroke="#000000" stroke-width="0.3283" stroke-linecap="round" stroke-linejoin="round" stroke-miterlimit="10" x1="101.284" y1="53.716" x2="99.798" y2="53.451"/>
		
			<path fill="none" stroke="#000000" stroke-width="0.3283" stroke-linecap="round" stroke-linejoin="round" stroke-miterlimit="10" d="
			M106.82,50.469c-1.497,1.464-3.335,2.543-5.492,3.247h-0.043"/>
		
			<path fill="none" stroke="#000000" stroke-width="0.3283" stroke-linecap="round" stroke-linejoin="round" stroke-miterlimit="10" d="
			M53.906,50.689c0.682,0.22,1.387,0.418,2.102,0.604c2.443,0.639,5.041,1.09,7.781,1.332c9.189,0.825,17.851,0.55,25.984-0.814
			c4.017-0.683,7.396-1.441,10.136-2.278c1.398-0.429,2.62-0.88,3.676-1.343c0.661-0.286,1.255-0.583,1.783-0.88"/>
		
			<line fill="none" stroke="#000000" stroke-width="0.3283" stroke-linecap="round" stroke-linejoin="round" stroke-miterlimit="10" x1="105.367" y1="49.347" x2="105.367" y2="47.311"/>
		
			<line fill="none" stroke="#000000" stroke-width="0.3283" stroke-linecap="round" stroke-linejoin="round" stroke-miterlimit="10" x1="71.679" y1="57.271" x2="71.679" y2="56.445"/>
		
			<path fill="none" stroke="#000000" stroke-width="0.3283" stroke-linecap="round" stroke-linejoin="round" stroke-miterlimit="10" d="
			M77.534,58.073c-0.22,0.231-0.33,0.507-0.33,0.826s0.11,0.583,0.33,0.813c0.231,0.221,0.506,0.342,0.826,0.342
			c0.308,0,0.583-0.121,0.803-0.342c0.231-0.23,0.352-0.494,0.352-0.813s-0.121-0.595-0.352-0.826c-0.22-0.22-0.495-0.33-0.803-0.33
			C78.041,57.743,77.766,57.854,77.534,58.073"/>
		
			<path fill="none" stroke="#000000" stroke-width="0.3283" stroke-linecap="round" stroke-linejoin="round" stroke-miterlimit="10" d="
			M84.248,57.578c-0.231-0.22-0.495-0.33-0.814-0.33s-0.594,0.11-0.825,0.33c-0.22,0.231-0.331,0.507-0.331,0.826
			c0,0.318,0.11,0.583,0.331,0.814c0.231,0.22,0.506,0.341,0.825,0.341s0.583-0.121,0.814-0.341c0.22-0.231,0.341-0.496,0.341-0.814
			C84.589,58.085,84.468,57.81,84.248,57.578"/>
		
			<line fill="none" stroke="#000000" stroke-width="0.3283" stroke-linecap="round" stroke-linejoin="round" stroke-miterlimit="10" x1="76.588" y1="63.555" x2="76.764" y2="64.743"/>
		
			<line fill="none" stroke="#000000" stroke-width="0.3283" stroke-linecap="round" stroke-linejoin="round" stroke-miterlimit="10" x1="99.842" y1="60.99" x2="98.412" y2="60.439"/>
		
			<path fill="none" stroke="#000000" stroke-width="0.3283" stroke-linecap="round" stroke-linejoin="round" stroke-miterlimit="10" d="
			M99.842,60.99c-2.399,1.155-5.007,2.058-7.836,2.686"/>
		
			<line fill="none" stroke="#000000" stroke-width="0.3283" stroke-linecap="round" stroke-linejoin="round" stroke-miterlimit="10" x1="99.798" y1="53.451" x2="98.412" y2="60.439"/>
		
			<path fill="none" stroke="#000000" stroke-width="0.3283" stroke-linecap="round" stroke-linejoin="round" stroke-miterlimit="10" d="
			M92.006,63.676c-4.545,1.023-9.619,1.375-15.243,1.067"/>
		
			<line fill="none" stroke="#000000" stroke-width="0.3283" stroke-linecap="round" stroke-linejoin="round" stroke-miterlimit="10" x1="76.588" y1="63.555" x2="71.679" y2="56.445"/>
		
			<line fill="none" stroke="#000000" stroke-width="0.3283" stroke-linecap="round" stroke-linejoin="round" stroke-miterlimit="10" x1="76.764" y1="64.743" x2="71.679" y2="57.271"/>
		
			<line fill="none" stroke="#000000" stroke-width="0.3283" stroke-linecap="round" stroke-linejoin="round" stroke-miterlimit="10" x1="99.842" y1="60.99" x2="101.284" y2="53.716"/>
		
			<path fill="none" stroke="#000000" stroke-width="0.3283" stroke-linecap="round" stroke-linejoin="round" stroke-miterlimit="10" d="
			M98.412,60.439c-4.832,1.607-12.106,2.642-21.824,3.115"/>
		
			<path fill="none" stroke="#000000" stroke-width="0.3283" stroke-linecap="round" stroke-linejoin="round" stroke-miterlimit="10" d="
			M107.139,78.852c0.947-11.468,0.848-20.921-0.319-28.383"/>
		
			<line fill="none" stroke="#000000" stroke-width="0.3283" stroke-linecap="round" stroke-linejoin="round" stroke-miterlimit="10" x1="53.906" y1="50.689" x2="54.137" y2="53.144"/>
		
			<path fill="none" stroke="#000000" stroke-width="0.3283" stroke-linecap="round" stroke-linejoin="round" stroke-miterlimit="10" d="
			M71.679,56.445c-3.213-0.133-5.998-0.298-8.32-0.484c-1.717-0.144-3.181-0.286-4.413-0.451c-3.06-0.43-4.645-0.925-4.732-1.508
			l-0.077-0.858"/>
		
			<path fill="none" stroke="#000000" stroke-width="0.3283" stroke-linecap="round" stroke-linejoin="round" stroke-miterlimit="10" d="
			M52.497,54.134c-0.011,0.33,0.682,0.781,2.102,1.376c0.892,0.495,2.344,0.88,4.347,1.166c1.254,0.176,2.718,0.319,4.413,0.418
			c2.355,0.133,5.128,0.198,8.32,0.177"/>
		
			<path fill="none" stroke="#000000" stroke-width="0.3283" stroke-linecap="round" stroke-linejoin="round" stroke-miterlimit="10" d="
			M52.497,54.134v-0.022c0.429-0.506,0.979-0.836,1.64-0.968"/>
		
			<path fill="none" stroke="#000000" stroke-width="0.3283" stroke-linecap="round" stroke-linejoin="round" stroke-miterlimit="10" d="
			M52.497,54.134c-0.661,8.749,0.077,17.575,2.234,26.479c0.077,0.33,0.165,0.671,0.242,1.001"/>
		
			<path fill="none" stroke="#000000" stroke-width="0.3283" stroke-linecap="round" stroke-linejoin="round" stroke-miterlimit="10" d="
			M54.973,81.614c0.286,1.101,0.583,2.19,0.892,3.291c0.363,0.55,0.771,1.067,1.199,1.552c2.069,2.289,5.008,3.852,8.805,4.666
			c1.045,0.231,2.157,0.396,3.334,0.506c3.159,0.33,6.207,0.463,9.167,0.396"/>
		
			<path fill="none" stroke="#000000" stroke-width="0.3283" stroke-linecap="round" stroke-linejoin="round" stroke-miterlimit="10" d="
			M78.371,92.025c-0.825-2.686-2.586-4.436-5.305-5.25c-3.368-0.22-6.614-0.781-9.707-1.684c-0.836-0.253-1.662-0.517-2.465-0.803
			c-2.036-0.738-4.017-1.629-5.921-2.675"/>
		
			<path fill="none" stroke="#000000" stroke-width="0.3283" stroke-linecap="round" stroke-linejoin="round" stroke-miterlimit="10" d="
			M107.139,78.852l-4.094,3.632c-1.453,1.09-2.432,2.652-2.95,4.7"/>
		
			<path fill="none" stroke="#000000" stroke-width="0.3283" stroke-linecap="round" stroke-linejoin="round" stroke-miterlimit="10" d="
			M100.095,87.184c4.105-1.992,6.35-3.621,6.725-4.92c0.121-1.156,0.22-2.301,0.319-3.412"/>
		
			<path fill="none" stroke="#000000" stroke-width="0.3283" stroke-linecap="round" stroke-linejoin="round" stroke-miterlimit="10" d="
			M90.201,90.628l-0.065,0.011c-0.033,0.011-0.044,0.011-0.077,0.022c-3.698,0.825-7.605,1.276-11.688,1.364"/>
		
			<path fill="none" stroke="#000000" stroke-width="0.3283" stroke-linecap="round" stroke-linejoin="round" stroke-miterlimit="10" d="
			M92.006,63.676c0.947,7.241,1.211,14.604,0.792,22.109c-0.451,2.895-1.321,4.502-2.598,4.843"/>
		
			<path fill="none" stroke="#000000" stroke-width="0.3283" stroke-linecap="round" stroke-linejoin="round" stroke-miterlimit="10" d="
			M90.201,90.628c2.377-0.539,4.678-1.232,6.89-2.08c1.101-0.474,2.091-0.936,3.004-1.364"/>
	</g>
	<g>
		<g>
			<path fill="#3C94C4" d="M86.57,28.821c-0.319,0.165-0.617,0.353-0.914,0.572c-0.308,0.22-0.616,0.474-0.914,0.748
				c-0.154,0.121-0.297,0.253-0.429,0.396c-1.596,1.585-2.542,3.456-2.851,5.58c-0.066,0.495-0.11,1.023-0.11,1.563
				c0,2.773,0.979,5.15,2.961,7.12c0.231,0.231,0.462,0.451,0.704,0.66c3.07,1.134,6.515,1.641,10.345,1.541
				c1.167-0.495,2.234-1.222,3.213-2.201c1.97-1.97,2.949-4.347,2.949-7.12c0-1.761-0.385-3.356-1.178-4.787
				c-1.937-1.981-4.908-3.742-8.914-5.305C89.651,27.589,88.022,27.996,86.57,28.821z M86.768,31.044
				c0.528-0.396,1.078-0.704,1.662-0.946c0.979-0.418,2.058-0.616,3.213-0.616c1.607,0,3.049,0.386,4.325,1.178
				c0.176,0.11,0.353,0.231,0.518,0.363c0.363,0.253,0.704,0.55,1.034,0.88c1.618,1.618,2.432,3.577,2.432,5.866
				c0,2.3-0.814,4.259-2.432,5.877c-1.629,1.629-3.577,2.433-5.877,2.433c-0.044,0-0.077,0-0.11,0
				c-1.178-0.022-2.256-0.242-3.247-0.683c-0.914-0.396-1.75-0.99-2.509-1.75c-1.618-1.618-2.432-3.577-2.432-5.877
				c0-1.903,0.562-3.577,1.684-5.019c0.22-0.297,0.474-0.572,0.749-0.848C86.085,31.584,86.416,31.298,86.768,31.044z"/>
			<path fill="#82AEC7" d="M88.43,30.098c-0.583,0.242-1.133,0.551-1.662,0.946c2.113-0.671,3.984,0,5.624,2.015
				c1.112,1.782,1.673,3.565,1.673,5.349c-0.055,2.344-0.572,4.138-1.541,5.382c-0.386,0.462-0.826,0.847-1.321,1.166
				c-0.924,0.584-1.893,0.727-2.917,0.44c0.991,0.44,2.069,0.66,3.247,0.683c0.033,0,0.066,0,0.11,0c2.3,0,4.248-0.804,5.877-2.433
				c1.618-1.618,2.432-3.577,2.432-5.877c0-2.289-0.814-4.248-2.432-5.866c-0.33-0.33-0.671-0.627-1.034-0.88
				c-0.165-0.132-0.341-0.253-0.518-0.363c-1.276-0.792-2.718-1.178-4.325-1.178C90.487,29.481,89.409,29.68,88.43,30.098z"/>
			<path fill="#445971" d="M85.777,31.902c-0.275,0.275-0.528,0.551-0.749,0.848c-0.77,4.105,0.286,7.429,3.147,9.982
				c1.574,0.946,3.016,1.299,4.348,1.057c0.968-1.244,1.485-3.038,1.541-5.382c0-1.783-0.561-3.566-1.673-5.349
				c-1.64-2.015-3.511-2.686-5.624-2.015C86.416,31.298,86.085,31.584,85.777,31.902z"/>
			<path fill="#174A5E" d="M91.203,44.955c0.495-0.319,0.935-0.704,1.321-1.166c-1.332,0.242-2.773-0.11-4.348-1.057
				c-2.861-2.554-3.917-5.877-3.147-9.982c-1.122,1.441-1.684,3.115-1.684,5.019c0,2.3,0.814,4.259,2.432,5.877
				c0.759,0.76,1.596,1.354,2.509,1.75C89.31,45.682,90.279,45.539,91.203,44.955z"/>
			<path fill="#3C94C4" d="M84.314,30.538c0.132-0.144,0.275-0.275,0.429-0.396c0.297-0.274,0.605-0.528,0.914-0.748l-3.929,2.41
				c-2.234,2.245-3.357,4.589-3.357,7.032c0,0.012,0,0.022,0,0.033l3.093-2.751C81.771,33.994,82.718,32.123,84.314,30.538z"/>
			<path fill="#C4D6E9" d="M97.322,29.46c-0.209-0.144-0.418-0.298-0.628-0.419c-1.552-0.968-3.301-1.452-5.26-1.452
				c4.006,1.563,6.978,3.323,8.914,5.305c-0.451-0.848-1.045-1.629-1.771-2.355C98.169,30.142,97.751,29.778,97.322,29.46z"/>
			<path fill="#29688D" d="M92.138,47.739c0.011,0,0.022,0,0.044,0c1.122-0.077,2.19-0.319,3.181-0.737
				c-3.83,0.1-7.275-0.407-10.345-1.541c1.167,0.969,2.454,1.641,3.874,1.992c0.583,0.144,1.188,0.242,1.816,0.286H92.138z"/>
			<path fill="#29688D" d="M88.892,47.453c-1.42-0.352-2.708-1.023-3.874-1.992c-0.242-0.209-0.473-0.429-0.704-0.66
				c-1.981-1.97-2.961-4.347-2.961-7.12c0-0.539,0.044-1.067,0.11-1.563l-3.093,2.751c0,2.443,0.814,4.545,2.421,6.273
				c1.431,1.541,3.136,2.398,5.106,2.586c0,0,0.011,0,0.022,0l4.788,0.011C90.081,47.695,89.475,47.597,88.892,47.453z"/>
			
				<path fill="none" stroke="#000000" stroke-width="0.3283" stroke-linecap="round" stroke-linejoin="round" stroke-miterlimit="10" d="
				M92.138,47.739c0.011,0,0.022,0,0.044,0c1.122-0.077,2.19-0.319,3.181-0.737c1.167-0.495,2.234-1.222,3.213-2.201
				c1.97-1.97,2.949-4.347,2.949-7.12c0-1.761-0.385-3.356-1.178-4.787c-0.451-0.848-1.045-1.629-1.771-2.355
				c-0.407-0.396-0.825-0.76-1.254-1.078c-0.209-0.144-0.418-0.298-0.628-0.419c-1.552-0.968-3.301-1.452-5.26-1.452
				c-1.783,0-3.412,0.407-4.864,1.232c-0.319,0.165-0.617,0.353-0.914,0.572"/>
			
				<path fill="none" stroke="#000000" stroke-width="0.3283" stroke-linecap="round" stroke-linejoin="round" stroke-miterlimit="10" d="
				M85.656,29.394c-0.308,0.22-0.616,0.474-0.914,0.748c-0.154,0.121-0.297,0.253-0.429,0.396c-1.596,1.585-2.542,3.456-2.851,5.58
				c-0.066,0.495-0.11,1.023-0.11,1.563c0,2.773,0.979,5.15,2.961,7.12c0.231,0.231,0.462,0.451,0.704,0.66
				c1.167,0.969,2.454,1.641,3.874,1.992c0.583,0.144,1.188,0.242,1.816,0.286"/>
			
				<path fill="none" stroke="#000000" stroke-width="0.3283" stroke-linecap="round" stroke-linejoin="round" stroke-miterlimit="10" d="
				M85.656,29.394l-3.929,2.41c-2.234,2.245-3.357,4.589-3.357,7.032c0,0.012,0,0.022,0,0.033c0,2.443,0.814,4.545,2.421,6.273
				c1.431,1.541,3.136,2.398,5.106,2.586c0,0,0.011,0,0.022,0l4.788,0.011"/>
			
				<path fill="none" stroke="#000000" stroke-width="0.3283" stroke-linecap="round" stroke-linejoin="round" stroke-miterlimit="10" d="
				M90.708,47.739c0.242,0.012,0.484,0.022,0.726,0.022s0.473-0.011,0.704-0.022"/>
			
				<line fill="none" stroke="#000000" stroke-width="0.3283" stroke-linecap="round" stroke-linejoin="round" stroke-miterlimit="10" x1="90.708" y1="47.739" x2="92.138" y2="47.739"/>
			
				<path fill="none" stroke="#000000" stroke-width="0.3283" stroke-linecap="round" stroke-linejoin="round" stroke-miterlimit="10" d="
				M86.768,31.044c-0.353,0.254-0.683,0.54-0.991,0.858c-0.275,0.275-0.528,0.551-0.749,0.848c-1.122,1.441-1.684,3.115-1.684,5.019
				c0,2.3,0.814,4.259,2.432,5.877c0.759,0.76,1.596,1.354,2.509,1.75c0.991,0.44,2.069,0.66,3.247,0.683c0.033,0,0.066,0,0.11,0
				c2.3,0,4.248-0.804,5.877-2.433c1.618-1.618,2.432-3.577,2.432-5.877c0-2.289-0.814-4.248-2.432-5.866
				c-0.33-0.33-0.671-0.627-1.034-0.88c-0.165-0.132-0.341-0.253-0.518-0.363c-1.276-0.792-2.718-1.178-4.325-1.178
				c-1.156,0-2.234,0.198-3.213,0.616C87.846,30.34,87.296,30.648,86.768,31.044"/>
		</g>
		<g>
			<path fill="#FFFFFF" d="M93.921,36.029l2.003-1.354c-0.892-1.31-2.058-2.322-3.489-3.026l-2.377,1.685
				C91.841,34.115,93.118,35.018,93.921,36.029z"/>
			<path fill="#FFFFFF" d="M91.764,36.603l0.804-0.353l-0.947-0.814l-0.627,0.539L91.764,36.603z"/>
		</g>
		<g>
			<path fill="#3C94C4" d="M51.452,56.203c-0.947,0.352-1.706,1.012-2.278,1.98c1.453-1.354,2.938,0.144,4.457,4.479
				c1.134,3.379,1.519,6.769,1.145,10.146c1.442-0.792,2.84-1.937,4.171-3.434c0.11-0.132,0.22-0.253,0.33-0.374
				c-0.055-1.364-0.165-2.619-0.33-3.786c-0.297-2.233-0.771-4.115-1.431-5.635c-0.991-2.311-2.201-3.632-3.61-3.983
				C53.157,55.586,52.343,55.784,51.452,56.203z"/>
			<path fill="#29688D" d="M50.857,76.882c0.121,0.132,0.253,0.253,0.375,0.374c1.574,1.398,3.412,1.838,5.514,1.32
				c1.079-0.527,1.816-1.859,2.201-3.983c0.187-0.969,0.297-2.103,0.33-3.4v-2.19c-0.11,0.121-0.22,0.242-0.33,0.374
				c-1.332,1.497-2.729,2.642-4.171,3.434c-0.022,0.265-0.066,0.528-0.099,0.782C53.917,76.617,52.64,77.707,50.857,76.882z"/>
			<path fill="#29688D" d="M48.315,71.082c0.495,2.531,1.343,4.469,2.542,5.8c1.783,0.825,3.06-0.265,3.819-3.29
				c0.033-0.254,0.077-0.518,0.099-0.782C52.123,73.855,49.977,73.283,48.315,71.082z"/>
			<path fill="#3C94C4" d="M47.82,65.909c0.044,1.938,0.209,3.654,0.495,5.173c1.662,2.201,3.808,2.773,6.46,1.728
				c0.374-3.378-0.011-6.768-1.145-10.146c-1.519-4.336-3.004-5.833-4.457-4.479C48.183,59.856,47.721,62.421,47.82,65.909z"/>
			
				<path fill="none" stroke="#000000" stroke-width="0.3283" stroke-linecap="round" stroke-linejoin="round" stroke-miterlimit="10" d="
				M50.857,76.882c-1.199-1.331-2.047-3.269-2.542-5.8c-0.286-1.519-0.451-3.235-0.495-5.173c-0.099-3.488,0.363-6.053,1.354-7.726"
				/>
			
				<path fill="none" stroke="#000000" stroke-width="0.3283" stroke-linecap="round" stroke-linejoin="round" stroke-miterlimit="10" d="
				M50.857,76.882c1.783,0.825,3.06-0.265,3.819-3.29c0.033-0.254,0.077-0.518,0.099-0.782c0.374-3.378-0.011-6.768-1.145-10.146
				c-1.519-4.336-3.004-5.833-4.457-4.479"/>
			
				<path fill="none" stroke="#000000" stroke-width="0.3283" stroke-linecap="round" stroke-linejoin="round" stroke-miterlimit="10" d="
				M50.857,76.882c0.121,0.132,0.253,0.253,0.375,0.374c1.574,1.398,3.412,1.838,5.514,1.32c1.079-0.527,1.816-1.859,2.201-3.983
				c0.187-0.969,0.297-2.103,0.33-3.4v-2.19c-0.055-1.364-0.165-2.619-0.33-3.786c-0.297-2.233-0.771-4.115-1.431-5.635
				c-0.991-2.311-2.201-3.632-3.61-3.983c-0.749-0.012-1.563,0.187-2.454,0.605c-0.947,0.352-1.706,1.012-2.278,1.98"/>
		</g>
		<g>
			<path fill="#FFFFFF" d="M29.034,80.899l-0.055,0.176c-0.407,1.563-0.44,2.938-0.077,4.148c0.055,0.177,0.11,0.363,0.187,0.54
				c2.234,0.847,5.128,0.341,8.705-1.53c-3.257-1.331-5.524-3.906-6.79-7.715C30.068,78.104,29.418,79.567,29.034,80.899z"/>
			<path fill="#656565" d="M28.979,81.075c-0.418,0.539-0.771,1.222-1.046,2.047c-0.022,1.255,0.132,2.157,0.474,2.707
				c0.154-0.308,0.319-0.506,0.495-0.605C28.538,84.014,28.571,82.638,28.979,81.075z"/>
			<path fill="#9EA0A3" d="M49.525,64.765c-0.726-0.065-1.552,0.177-2.465,0.737c1.123,0.121,1.684,0.925,1.684,2.41l1.882-0.946
				C50.505,65.381,50.142,64.654,49.525,64.765z"/>
			<path fill="#FFFFFF" d="M45.838,66.404c-0.198-0.385-0.429-0.693-0.66-0.924c-1.981-1.629-4.732-0.562-8.265,3.202
				c-2.575,2.895-4.545,5.492-5.91,7.836c1.266,3.809,3.533,6.384,6.79,7.715h0.011c4.479-1.838,7.627-5.679,9.443-11.534
				c-0.033-0.297-0.066-0.594-0.088-0.869c-0.11-0.891-0.22-1.684-0.352-2.398C46.554,68.133,46.224,67.12,45.838,66.404z"/>
			<path fill="#656565" d="M46.807,69.432c0.132,0.715,0.242,1.508,0.352,2.398c0.385-0.484,0.782-0.913,1.189-1.299
				c0.253-1.034,0.385-1.914,0.396-2.619C48.095,68.275,47.445,68.782,46.807,69.432z"/>
			<path fill="#9EA0A3" d="M46.807,69.432c0.638-0.649,1.288-1.156,1.937-1.52c0-1.485-0.562-2.289-1.684-2.41
				c-0.385,0.242-0.792,0.54-1.222,0.902C46.224,67.12,46.554,68.133,46.807,69.432z"/>
			<path fill="#656565" d="M48.744,67.912c-0.011,0.705-0.143,1.585-0.396,2.619c0.616-0.583,1.243-1.045,1.893-1.408
				c0.309-0.374,0.44-1.09,0.385-2.157L48.744,67.912z"/>
			<path fill="#C2C7CE" d="M47.489,78.929c0-2.388-0.088-4.457-0.242-6.229c-1.816,5.855-4.963,9.696-9.443,11.534
				c1.618,0.672,3.478,1.023,5.591,1.079C45.222,83.584,46.587,81.449,47.489,78.929z"/>
			<path fill="#C2C7CE" d="M37.805,84.233h-0.011c-3.577,1.871-6.471,2.377-8.705,1.53c0.385,0.847,0.902,1.519,1.574,2.014
				c1.255,0.936,3.016,1.244,5.272,0.936c0.594-0.077,1.21-0.198,1.871-0.363c0.826-0.209,1.706-0.484,2.642-0.814
				c0.462-0.275,0.913-0.572,1.332-0.881c0.572-0.418,1.111-0.869,1.618-1.342C41.282,85.257,39.422,84.905,37.805,84.233z"/>
			<path fill="#656565" d="M40.446,87.535c-0.936,0.33-1.816,0.605-2.642,0.814c0.165,0.484,0.286,0.969,0.352,1.453
				c1.288-1.112,2.499-1.762,3.643-1.916c0.011-0.406,0.011-0.814-0.022-1.232C41.359,86.963,40.908,87.26,40.446,87.535z"/>
			<path fill="#9EA0A3" d="M39.313,92.322c0.781-0.176,1.365-0.594,1.75-1.243c0.44-0.946,0.682-2.015,0.737-3.192
				c-1.145,0.154-2.355,0.804-3.643,1.916c0.055,0.473,0.066,0.946,0.022,1.419C38.19,91.992,38.564,92.355,39.313,92.322z"/>
			<path fill="#656565" d="M34.283,90.528c0.572-0.704,1.122-1.31,1.651-1.815c-2.256,0.309-4.017,0-5.272-0.936
				c-0.176,0.275-0.33,0.561-0.473,0.858C31.158,89.935,32.522,90.562,34.283,90.528z"/>
			<path fill="#656565" d="M30.662,87.777c-0.671-0.495-1.188-1.167-1.574-2.014c-0.077-0.177-0.132-0.363-0.187-0.54
				c-0.176,0.1-0.341,0.298-0.495,0.605c0.264,1.364,0.847,2.301,1.783,2.807C30.332,88.338,30.486,88.053,30.662,87.777z"/>
			<path fill="#9EA0A3" d="M28.406,85.829c-0.242,0.474-0.451,1.178-0.638,2.146c-0.242,1.331-0.099,2.312,0.44,2.894
				c0.352,0.419,0.715,0.595,1.079,0.529c0.187-0.991,0.495-1.916,0.902-2.763C29.253,88.13,28.67,87.193,28.406,85.829z"/>
			<path fill="#9EA0A3" d="M27.768,87.976c0.187-0.969,0.396-1.673,0.638-2.146c-0.341-0.55-0.496-1.452-0.474-2.707
				c-0.363,1.089-0.605,2.433-0.715,4.028C27.173,87.723,27.36,87.997,27.768,87.976z"/>
			<path fill="#9EA0A3" d="M29.287,91.398c-0.066,1.001,0.242,1.617,0.924,1.859c0.848,0.253,1.541,0.209,2.069-0.143
				c0.705-0.969,1.365-1.838,2.003-2.587c-1.761,0.033-3.125-0.594-4.094-1.893C29.782,89.482,29.474,90.407,29.287,91.398z"/>
			
				<path fill="none" stroke="#000000" stroke-width="0.3283" stroke-linecap="round" stroke-linejoin="round" stroke-miterlimit="10" d="
				M28.979,81.075l0.055-0.176c0.385-1.332,1.034-2.796,1.97-4.381"/>
			
				<path fill="none" stroke="#000000" stroke-width="0.3283" stroke-linecap="round" stroke-linejoin="round" stroke-miterlimit="10" d="
				M27.768,87.976c-0.408,0.021-0.595-0.253-0.551-0.825c0.11-1.596,0.353-2.939,0.715-4.028c0.275-0.825,0.627-1.508,1.046-2.047"
				/>
			
				<path fill="none" stroke="#000000" stroke-width="0.3283" stroke-linecap="round" stroke-linejoin="round" stroke-miterlimit="10" d="
				M48.348,70.531c0.616-0.583,1.243-1.045,1.893-1.408c0.309-0.374,0.44-1.09,0.385-2.157c-0.121-1.585-0.484-2.312-1.101-2.201
				c-0.726-0.065-1.552,0.177-2.465,0.737"/>
			
				<path fill="none" stroke="#000000" stroke-width="0.3283" stroke-linecap="round" stroke-linejoin="round" stroke-miterlimit="10" d="
				M45.838,66.404c-0.198-0.385-0.429-0.693-0.66-0.924c-1.981-1.629-4.732-0.562-8.265,3.202c-2.575,2.895-4.545,5.492-5.91,7.836"
				/>
			
				<path fill="none" stroke="#000000" stroke-width="0.3283" stroke-linecap="round" stroke-linejoin="round" stroke-miterlimit="10" d="
				M47.159,71.83c-0.11-0.891-0.22-1.684-0.352-2.398c-0.253-1.299-0.583-2.312-0.969-3.027"/>
			
				<path fill="none" stroke="#000000" stroke-width="0.3283" stroke-linecap="round" stroke-linejoin="round" stroke-miterlimit="10" d="
				M48.348,70.531c-0.407,0.386-0.804,0.814-1.189,1.299"/>
			
				<path fill="none" stroke="#000000" stroke-width="0.3283" stroke-linecap="round" stroke-linejoin="round" stroke-miterlimit="10" d="
				M48.348,70.531c0.253-1.034,0.385-1.914,0.396-2.619c0-1.485-0.562-2.289-1.684-2.41"/>
			
				<path fill="none" stroke="#000000" stroke-width="0.3283" stroke-linecap="round" stroke-linejoin="round" stroke-miterlimit="10" d="
				M47.06,65.502c-0.385,0.242-0.792,0.54-1.222,0.902"/>
			
				<path fill="none" stroke="#000000" stroke-width="0.3283" stroke-linecap="round" stroke-linejoin="round" stroke-miterlimit="10" d="
				M43.396,85.313c1.827-1.729,3.191-3.863,4.094-6.384c0-2.388-0.088-4.457-0.242-6.229c-0.033-0.297-0.066-0.594-0.088-0.869"/>
			
				<path fill="none" stroke="#000000" stroke-width="0.3283" stroke-linecap="round" stroke-linejoin="round" stroke-miterlimit="10" d="
				M43.396,85.313c-2.113-0.056-3.973-0.407-5.591-1.079h-0.011c-3.257-1.331-5.524-3.906-6.79-7.715"/>
			
				<path fill="none" stroke="#000000" stroke-width="0.3283" stroke-linecap="round" stroke-linejoin="round" stroke-miterlimit="10" d="
				M37.805,88.35c0.826-0.209,1.706-0.484,2.642-0.814c0.462-0.275,0.913-0.572,1.332-0.881"/>
			
				<path fill="none" stroke="#000000" stroke-width="0.3283" stroke-linecap="round" stroke-linejoin="round" stroke-miterlimit="10" d="
				M41.778,86.654c0.033,0.418,0.033,0.826,0.022,1.232c-0.055,1.178-0.297,2.246-0.737,3.192c-0.385,0.649-0.969,1.067-1.75,1.243
				c-0.749,0.033-1.123-0.33-1.133-1.101c0.044-0.473,0.033-0.946-0.022-1.419c-0.066-0.484-0.187-0.969-0.352-1.453"/>
			
				<path fill="none" stroke="#000000" stroke-width="0.3283" stroke-linecap="round" stroke-linejoin="round" stroke-miterlimit="10" d="
				M35.934,88.713c-0.529,0.506-1.079,1.111-1.651,1.815c-0.639,0.749-1.299,1.618-2.003,2.587
				c-0.528,0.352-1.221,0.396-2.069,0.143c-0.682-0.242-0.99-0.858-0.924-1.859"/>
			
				<path fill="none" stroke="#000000" stroke-width="0.3283" stroke-linecap="round" stroke-linejoin="round" stroke-miterlimit="10" d="
				M35.934,88.713c0.594-0.077,1.21-0.198,1.871-0.363"/>
			
				<path fill="none" stroke="#000000" stroke-width="0.3283" stroke-linecap="round" stroke-linejoin="round" stroke-miterlimit="10" d="
				M41.778,86.654c0.572-0.418,1.111-0.869,1.618-1.342"/>
			
				<path fill="none" stroke="#000000" stroke-width="0.3283" stroke-linecap="round" stroke-linejoin="round" stroke-miterlimit="10" d="
				M28.901,85.224c0.055,0.177,0.11,0.363,0.187,0.54c0.385,0.847,0.902,1.519,1.574,2.014"/>
			
				<path fill="none" stroke="#000000" stroke-width="0.3283" stroke-linecap="round" stroke-linejoin="round" stroke-miterlimit="10" d="
				M29.287,91.398c0.187-0.991,0.495-1.916,0.902-2.763c0.143-0.298,0.297-0.583,0.473-0.858"/>
			
				<path fill="none" stroke="#000000" stroke-width="0.3283" stroke-linecap="round" stroke-linejoin="round" stroke-miterlimit="10" d="
				M27.768,87.976c0.187-0.969,0.396-1.673,0.638-2.146c0.154-0.308,0.319-0.506,0.495-0.605"/>
			
				<path fill="none" stroke="#000000" stroke-width="0.3283" stroke-linecap="round" stroke-linejoin="round" stroke-miterlimit="10" d="
				M29.287,91.398c-0.363,0.065-0.727-0.11-1.079-0.529c-0.539-0.582-0.682-1.563-0.44-2.894"/>
			
				<path fill="none" stroke="#000000" stroke-width="0.3283" stroke-linecap="round" stroke-linejoin="round" stroke-miterlimit="10" d="
				M30.662,87.777c1.255,0.936,3.016,1.244,5.272,0.936"/>
			
				<path fill="none" stroke="#000000" stroke-width="0.3283" stroke-linecap="round" stroke-linejoin="round" stroke-miterlimit="10" d="
				M28.979,81.075c-0.407,1.563-0.44,2.938-0.077,4.148"/>
		</g>
	</g>
</g>
</svg>
